<?xml version="1.0" encoding="UTF-8"?>
<svg width="30px" height="30px" viewBox="0 0 30 30" version="1.1" xmlns="http://www.w3.org/2000/svg" xmlns:xlink="http://www.w3.org/1999/xlink">
    <!-- Generator: Sketch 51.3 (57544) - http://www.bohemiancoding.com/sketch -->
    <title>artical icon red</title>
    <desc>Created with Sketch.</desc>
    <defs>
        <path d="M16,15 L23,15 L23,16.5 L16,16.5 M16,12.5 L23,12.5 L23,14 L16,14 M16,17.5 L23,17.5 L23,19 L16,19 M24,7 L6,7 C4.8954305,7 4,7.8954305 4,9 L4,22 C4,23.1045695 4.8954305,24 6,24 L24,24 C25.1045695,24 26,23.1045695 26,22 L26,9 C26,7.8954305 25.1045695,7 24,7 M24,22 L15,22 L15,9 L24,9" id="path-1"></path>
        <filter x="-27.3%" y="-35.3%" width="154.5%" height="170.6%" filterUnits="objectBoundingBox" id="filter-2">
            <feOffset dx="0" dy="0" in="SourceAlpha" result="shadowOffsetOuter1"></feOffset>
            <feGaussianBlur stdDeviation="2" in="shadowOffsetOuter1" result="shadowBlurOuter1"></feGaussianBlur>
            <feColorMatrix values="0 0 0 0 0   0 0 0 0 0   0 0 0 0 0  0 0 0 0.5 0" type="matrix" in="shadowBlurOuter1"></feColorMatrix>
        </filter>
    </defs>
    <g id="artical-icon-red" stroke="none" stroke-width="1" fill="none" fill-rule="evenodd">
        <g id="Shape" fill-rule="nonzero">
            <use fill="black" fill-opacity="1" filter="url(#filter-2)" xlink:href="#path-1"></use>
            <use fill="#EC9F89" xlink:href="#path-1"></use>
        </g>
    </g>
</svg>