<?xml version="1.0" encoding="UTF-8"?>
<svg width="40px" height="40px" viewBox="0 0 40 40" version="1.1" xmlns="http://www.w3.org/2000/svg" xmlns:xlink="http://www.w3.org/1999/xlink">
    <!-- Generator: Sketch 51.3 (57544) - http://www.bohemiancoding.com/sketch -->
    <title>Artical icon Copy</title>
    <desc>Created with Sketch.</desc>
    <defs></defs>
    <g id="Artical-icon-Copy" stroke="none" stroke-width="1" fill="none" fill-rule="evenodd">
        <g id="Search-icon" fill-rule="nonzero">
            <g id="magnify" opacity="0.550837054" transform="translate(11.000000, 11.000000)" fill="#FFFFFF">
                <path d="M6.5,0 C10.0898509,1.33226763e-15 13,2.91014913 13,6.5 C13,8.11 12.41,9.59 11.44,10.73 L11.71,11 L12.5,11 L17.5,16 L16,17.5 L11,12.5 L11,11.71 L10.73,11.44 C9.59,12.41 8.11,13 6.5,13 C2.91014913,13 1.33226763e-15,10.0898509 8.8817842e-16,6.5 C-1.33226763e-15,2.91014913 2.91014913,0 6.5,-4.4408921e-16 Z M6.5,2 C4,2 2,4 2,6.5 C2,9 4,11 6.5,11 C9,11 11,9 11,6.5 C11,4 9,2 6.5,2 Z" id="Shape"></path>
            </g>
            <circle id="Oval-6" stroke="#FFFFFF" opacity="0.460658482" cx="20" cy="20" r="20"></circle>
        </g>
    </g>
</svg>