<?xml version="1.0" encoding="UTF-8"?>
<svg width="20px" height="20px" viewBox="0 0 20 20" version="1.1" xmlns="http://www.w3.org/2000/svg" xmlns:xlink="http://www.w3.org/1999/xlink">
    <!-- Generator: Sketch 51.3 (57544) - http://www.bohemiancoding.com/sketch -->
    <title>event icon blue</title>
    <desc>Created with Sketch.</desc>
    <defs></defs>
    <g id="event-icon-blue" stroke="none" stroke-width="1" fill="none" fill-rule="evenodd">
        <path d="M12,10 L13.5,10 L13.5,12.82 L15.94,14.23 L15.19,15.53 L12,13.69 L12,10 Z M16,5 L2,5 L2,16 L6.67,16 C6.24,15.09 6,14.07 6,13 C6,9.13400675 9.13400675,6 13,6 C14.07,6 15.09,6.24 16,6.67 L16,5 Z M2,18 C0.89,18 0,17.1 0,16 L0,2 C0,0.89 0.89,0 2,0 L3,0 L3,-2 L5,-2 L5,0 L13,0 L13,-2 L15,-2 L15,0 L16,0 C17.1045695,0 18,0.8954305 18,2 L18,8.1 C19.24,9.36 20,11.09 20,13 C20,16.8659932 16.8659932,20 13,20 C11.09,20 9.36,19.24 8.1,18 L2,18 Z M13,8.15 C10.321419,8.15 8.15,10.321419 8.15,13 C8.15,15.68 10.32,17.85 13,17.85 C14.2863,17.85 15.5199165,17.3390193 16.4294679,16.4294679 C17.3390193,15.5199165 17.85,14.2863 17.85,13 C17.85,10.32 15.68,8.15 13,8.15 Z" id="Shape" fill="#20B2B2" fill-rule="nonzero"></path>
    </g>
</svg>