<?xml version="1.0" encoding="UTF-8"?>
<svg width="40px" height="40px" viewBox="0 0 40 40" version="1.1" xmlns="http://www.w3.org/2000/svg" xmlns:xlink="http://www.w3.org/1999/xlink">
    <!-- Generator: Sketch 51.3 (57544) - http://www.bohemiancoding.com/sketch -->
    <title>filter icon</title>
    <desc>Created with Sketch.</desc>
    <defs></defs>
    <g id="filter-icon" stroke="none" stroke-width="1" fill="none" fill-rule="evenodd">
        <path d="M22.9995041,27.8776559 C23.0394975,28.1776142 22.939514,28.4975698 22.7095521,28.7075406 C22.3196165,29.0974865 21.6897207,29.0974865 21.2997851,28.7075406 L17.2904479,24.6980975 C17.060486,24.4681294 16.9605025,24.1581725 17.0004959,23.8682127 L17.0004959,18.7489238 L12.2112876,12.619775 C11.8713438,12.1898347 11.9513306,11.5599222 12.3812595,11.2199694 C12.5712281,11.0799889 12.7811934,11 13.001157,11 L26.998843,11 C27.2188066,11 27.4287719,11.0799889 27.6187405,11.2199694 C28.0486694,11.5599222 28.1286562,12.1898347 27.7887124,12.619775 L22.9995041,18.7489238 L22.9995041,27.8776559 Z M15.0408198,12.9997223 L19.0001653,18.0590196 L19.0001653,23.578253 L20.9998347,25.5779753 L20.9998347,18.049021 L24.9591802,12.9997223 L15.0408198,12.9997223 Z" id="Shape" fill="#FFFFFF" fill-rule="nonzero"></path>
    </g>
</svg>