<?xml version="1.0" encoding="UTF-8"?>
<svg width="40px" height="40px" viewBox="0 0 40 40" version="1.1" xmlns="http://www.w3.org/2000/svg" xmlns:xlink="http://www.w3.org/1999/xlink">
    <!-- Generator: Sketch 51.3 (57544) - http://www.bohemiancoding.com/sketch -->
    <title>audio icon</title>
    <desc>Created with Sketch.</desc>
    <defs></defs>
    <g id="audio-icon" stroke="none" stroke-width="1" fill="none" fill-rule="evenodd">
        <path d="M20.5,17 C22.0275961,17 23.2659574,18.2685265 23.2659574,19.8333333 C23.2659574,20.5416667 23.0170213,21.165 22.6159574,21.6608333 L27,34 L24.0542553,34 L20.5,23.9841667 L16.9457447,34 L14,34 L18.3840426,21.6608333 C17.9829787,21.165 17.7340426,20.5416667 17.7340426,19.8333333 C17.7340426,18.2685265 18.9724039,17 20.5,17 Z M20.5,15.0425963 C17.3703864,15.0425963 14.8333333,17.7670299 14.8333333,21.127789 C14.8333333,21.8884381 14.975,22.6490872 15.23,23.3488844 L13.9833333,27 C12.7508333,25.4026369 12,23.3640974 12,21.127789 C12,16.0866504 15.8055796,12 20.5,12 C22.7543402,12 24.9163484,12.961675 26.5104076,14.6734675 C28.1044669,16.38526 29,18.7069489 29,21.127789 C29,23.3640974 28.2491667,25.4026369 27.0166667,27 L25.77,23.3488844 C26.025,22.6490872 26.1666667,21.8884381 26.1666667,21.127789 C26.1666667,17.7670299 23.6296136,15.0425963 20.5,15.0425963 Z M20,8.89855072 C13.8144108,8.89855072 8.8,14.0894522 8.8,20.4927536 C8.8,23.9130435 10.2,27.0144928 12.496,29.1014493 L11.488,32 C8.156,29.3478261 6,25.173913 6,20.4927536 C6,12.4886268 12.2680135,6 20,6 C23.7130309,6 27.2739856,7.52691073 29.8994949,10.2448293 C32.5250042,12.9627478 34,16.6490364 34,20.4927536 C34,25.173913 31.844,29.3478261 28.512,32 L27.504,29.1014493 C29.8,27.0144928 31.2,23.9130435 31.2,20.4927536 C31.2,14.0894522 26.1855892,8.89855072 20,8.89855072 Z" id="podcast-icon" fill="#B8E986" fill-rule="nonzero"></path>
    </g>
</svg>