<?xml version="1.0" encoding="UTF-8"?>
<svg width="20px" height="20px" viewBox="0 0 20 20" version="1.1" xmlns="http://www.w3.org/2000/svg" xmlns:xlink="http://www.w3.org/1999/xlink">
    <!-- Generator: Sketch 51.3 (57544) - http://www.bohemiancoding.com/sketch -->
    <title>podcast icon blue copy</title>
    <desc>Created with Sketch.</desc>
    <defs></defs>
    <g id="podcast-icon-blue-copy" stroke="none" stroke-width="1" fill="none" fill-rule="evenodd">
        <path d="M10.3571429,7.85714286 C11.4482829,7.85714286 12.3328267,8.76323324 12.3328267,9.88095238 C12.3328267,10.3869048 12.1550152,10.8321429 11.868541,11.1863095 L15,20 L12.8958967,20 L10.3571429,12.8458333 L7.81838906,20 L5.71428571,20 L8.84574468,11.1863095 C8.55927052,10.8321429 8.38145897,10.3869048 8.38145897,9.88095238 C8.38145897,8.76323324 9.26600277,7.85714286 10.3571429,7.85714286 Z M10.3571429,6.45899739 C8.12170458,6.45899739 6.30952381,8.40502137 6.30952381,10.8055636 C6.30952381,11.3488844 6.41071429,11.8922052 6.59285714,12.3920603 L5.70238095,15 C4.82202381,13.8590264 4.28571429,12.4029267 4.28571429,10.8055636 C4.28571429,7.20475025 7.00398545,4.28571429 10.3571429,4.28571429 C11.9673858,4.28571429 13.5116774,4.97262501 14.6502912,6.19533394 C15.7889049,7.41804287 16.4285714,9.07639205 16.4285714,10.8055636 C16.4285714,12.4029267 15.8922619,13.8590264 15.0119048,15 L14.1214286,12.3920603 C14.3035714,11.8922052 14.4047619,11.3488844 14.4047619,10.8055636 C14.4047619,8.40502137 12.5925811,6.45899739 10.3571429,6.45899739 Z M10,2.07039337 C5.581722,2.07039337 2,5.77818013 2,10.3519669 C2,12.7950311 3,15.010352 4.64,16.5010352 L3.92,18.5714286 C1.54,16.6770186 0,13.6956522 0,10.3519669 C-8.8817842e-16,4.63473344 4.4771525,1.37915904e-15 10,0 C12.6521649,-1.1492992e-15 15.195704,1.09065052 17.0710678,3.0320209 C18.9464316,4.97339128 20,7.60645456 20,10.3519669 C20,13.6956522 18.46,16.6770186 16.08,18.5714286 L15.36,16.5010352 C17,15.010352 18,12.7950311 18,10.3519669 C18,5.77818013 14.418278,2.07039337 10,2.07039337 Z" id="podcast-icon" fill="#20B2B2" fill-rule="nonzero"></path>
    </g>
</svg>