<?xml version="1.0" encoding="UTF-8"?>
<svg width="40px" height="40px" viewBox="0 0 40 40" version="1.1" xmlns="http://www.w3.org/2000/svg" xmlns:xlink="http://www.w3.org/1999/xlink">
    <!-- Generator: Sketch 51.3 (57544) - http://www.bohemiancoding.com/sketch -->
    <title>video icon copy</title>
    <desc>Created with Sketch.</desc>
    <defs></defs>
    <g id="video-icon-copy" stroke="none" stroke-width="1" fill="none" fill-rule="evenodd">
        <g id="FIlter-icon" fill-rule="nonzero">
            <circle id="Oval-6" stroke="#FFFFFF" opacity="0.460658482" cx="20" cy="20" r="20"></circle>
            <path d="M23.0013226,26.88 C23.0413226,27.18 22.9413226,27.5 22.7113226,27.71 C22.3213226,28.1 21.6913226,28.1 21.3013226,27.71 L17.2913226,23.7 C17.0613226,23.47 16.9613226,23.16 17.0013226,22.87 L17.0013226,17.75 L12.2113226,11.62 C11.8713226,11.19 11.9513226,10.56 12.3813226,10.22 C12.5713226,10.08 12.7813226,10 13.0013226,10 L27.0013226,10 C27.2213226,10 27.4313226,10.08 27.6213226,10.22 C28.0513226,10.56 28.1313226,11.19 27.7913226,11.62 L23.0013226,17.75 L23.0013226,26.88 Z M15.0413226,12 L19.0013226,17.06 L19.0013226,22.58 L21.0013226,24.58 L21.0013226,17.05 L24.9613226,12 L15.0413226,12 Z" id="Shape" fill="#FFFFFF" opacity="0.586830357"></path>
        </g>
    </g>
</svg>