<?xml version="1.0" encoding="UTF-8"?>
<svg width="20px" height="20px" viewBox="0 0 20 20" version="1.1" xmlns="http://www.w3.org/2000/svg" xmlns:xlink="http://www.w3.org/1999/xlink">
    <!-- Generator: Sketch 51.3 (57544) - http://www.bohemiancoding.com/sketch -->
    <title>video icon blue</title>
    <desc>Created with Sketch.</desc>
    <defs></defs>
    <g id="video-icon-blue" stroke="none" stroke-width="1" fill="none" fill-rule="evenodd">
        <path d="M2,4 L0,4 L0,18 C0,19.1045695 0.8954305,20 2,20 L16,20 L16,18 L2,18 L2,4 Z M18,0 L6,0 C4.8954305,0 4,0.8954305 4,2 L4,14 C4,15.1045695 4.8954305,16 6,16 L18,16 C19.1045695,16 20,15.1045695 20,14 L20,2 C20,0.8954305 19.1045695,0 18,0 Z M10,13 L10,4 L16,8.5 L10,13 Z" id="Shape-Copy-6" fill="#20B2B2" fill-rule="nonzero"></path>
    </g>
</svg>