<?xml version="1.0" encoding="UTF-8"?>
<svg width="30px" height="30px" viewBox="0 0 30 30" version="1.1" xmlns="http://www.w3.org/2000/svg" xmlns:xlink="http://www.w3.org/1999/xlink">
    <!-- Generator: Sketch 51.3 (57544) - http://www.bohemiancoding.com/sketch -->
    <title>video icon red</title>
    <desc>Created with Sketch.</desc>
    <defs>
        <path d="M7,9 L5,9 L5,23 C5,24.1045695 5.8954305,25 7,25 L21,25 L21,23 L7,23 L7,9 Z M23,5 L11,5 C9.8954305,5 9,5.8954305 9,7 L9,19 C9,20.1045695 9.8954305,21 11,21 L23,21 C24.1045695,21 25,20.1045695 25,19 L25,7 C25,5.8954305 24.1045695,5 23,5 Z M15,18 L15,9 L21,13.5 L15,18 Z" id="path-1"></path>
        <filter x="-30.0%" y="-30.0%" width="160.0%" height="160.0%" filterUnits="objectBoundingBox" id="filter-2">
            <feOffset dx="0" dy="0" in="SourceAlpha" result="shadowOffsetOuter1"></feOffset>
            <feGaussianBlur stdDeviation="2" in="shadowOffsetOuter1" result="shadowBlurOuter1"></feGaussianBlur>
            <feColorMatrix values="0 0 0 0 0   0 0 0 0 0   0 0 0 0 0  0 0 0 0.5 0" type="matrix" in="shadowBlurOuter1"></feColorMatrix>
        </filter>
    </defs>
    <g id="video-icon-red" stroke="none" stroke-width="1" fill="none" fill-rule="evenodd">
        <g id="Shape" fill-rule="nonzero">
            <use fill="black" fill-opacity="1" filter="url(#filter-2)" xlink:href="#path-1"></use>
            <use fill="#EC9F89" xlink:href="#path-1"></use>
        </g>
    </g>
</svg>